<?xml version="1.0" encoding="UTF-8"?>
<!DOCTYPE svg PUBLIC "-//W3C//DTD SVG 1.1//EN" "http://www.w3.org/Graphics/SVG/1.1/DTD/svg11.dtd">
<svg xmlns="http://www.w3.org/2000/svg" version="1.1" width="246px" height="230px" style="shape-rendering:geometricPrecision; text-rendering:geometricPrecision; image-rendering:optimizeQuality; fill-rule:evenodd; clip-rule:evenodd" xmlns:xlink="http://www.w3.org/1999/xlink">
<g><path style="opacity:1" fill="#fefefe" d="M -0.5,-0.5 C 81.5,-0.5 163.5,-0.5 245.5,-0.5C 245.5,76.1667 245.5,152.833 245.5,229.5C 163.5,229.5 81.5,229.5 -0.5,229.5C -0.5,152.833 -0.5,76.1667 -0.5,-0.5 Z"/></g>
<g><path style="opacity:1" fill="#88e7d7" d="M 42.5,5.5 C 57.5,5.5 72.5,5.5 87.5,5.5C 87.5,28.8333 87.5,52.1667 87.5,75.5C 70.8333,75.5 54.1667,75.5 37.5,75.5C 29.2439,71.7452 23.0772,65.7452 19,57.5C 17.4049,46.9066 17.0716,36.24 18,25.5C 22.5078,14.1424 30.6745,7.47571 42.5,5.5 Z"/></g>
<g><path style="opacity:1" fill="#c5f2eb" d="M 42.5,5.5 C 57.6576,4.5038 72.9909,4.17047 88.5,4.5C 88.5,28.1667 88.5,51.8333 88.5,75.5C 88.1667,75.5 87.8333,75.5 87.5,75.5C 87.5,52.1667 87.5,28.8333 87.5,5.5C 72.5,5.5 57.5,5.5 42.5,5.5 Z"/></g>
<g><path style="opacity:1" fill="#21295c" d="M 173.5,5.5 C 199.905,6.73841 217.739,19.7384 227,44.5C 227.882,47.7895 228.548,51.1228 229,54.5C 229.667,68.5 229.667,82.5 229,96.5C 224.01,123.989 207.844,140.323 180.5,145.5C 178.236,146.219 175.903,146.552 173.5,146.5C 168.833,146.5 164.167,146.5 159.5,146.5C 159.5,99.5 159.5,52.5 159.5,5.5C 164.167,5.5 168.833,5.5 173.5,5.5 Z"/></g>
<g><path style="opacity:1" fill="#ced4e0" d="M 17.5,75.5 C 17.5,75.8333 17.5,76.1667 17.5,76.5C 17.5,99.8333 17.5,123.167 17.5,146.5C 26.1731,146.334 34.8397,146.5 43.5,147C 40.8323,147.567 38.1656,148.067 35.5,148.5C 29.3554,147.51 23.0221,147.177 16.5,147.5C 16.1691,123.328 16.5024,99.3275 17.5,75.5 Z"/></g>
<g><path style="opacity:1" fill="#6983a2" d="M 17.5,76.5 C 17.5,76.1667 17.5,75.8333 17.5,75.5C 24.1667,75.5 30.8333,75.5 37.5,75.5C 54.1667,75.5 70.8333,75.5 87.5,75.5C 87.8333,75.5 88.1667,75.5 88.5,75.5C 88.1736,84.3494 88.507,93.0161 89.5,101.5C 89.2041,103.403 88.5375,105.07 87.5,106.5C 87.5,96.5 87.5,86.5 87.5,76.5C 64.1667,76.5 40.8333,76.5 17.5,76.5 Z"/></g>
<g><path style="opacity:1" fill="#1b3b6f" d="M 17.5,76.5 C 40.8333,76.5 64.1667,76.5 87.5,76.5C 87.5,86.5 87.5,96.5 87.5,106.5C 87.5,109.167 87.5,111.833 87.5,114.5C 87.5,125.167 87.5,135.833 87.5,146.5C 78.4938,146.334 69.4938,146.5 60.5,147C 75.264,148.267 84.264,156.1 87.5,170.5C 87.5,185.833 87.5,201.167 87.5,216.5C 71.5,216.5 55.5,216.5 39.5,216.5C 28.2488,213.75 21.0821,206.75 18,195.5C 17.0742,185.093 17.4075,174.759 19,164.5C 22.3849,156.948 27.8849,151.615 35.5,148.5C 38.1656,148.067 40.8323,147.567 43.5,147C 34.8397,146.5 26.1731,146.334 17.5,146.5C 17.5,123.167 17.5,99.8333 17.5,76.5 Z"/></g>
<g><path style="opacity:1" fill="#0a5b82" d="M 158.5,102.5 C 158.5,107.833 158.5,113.167 158.5,118.5C 151.701,139.089 137.367,148.255 115.5,146C 102.35,142.016 93.6832,133.516 89.5,120.5C 89.1249,118.302 88.4582,116.302 87.5,114.5C 87.5,111.833 87.5,109.167 87.5,106.5C 88.5375,105.07 89.2041,103.403 89.5,101.5C 95.0828,85.7766 106.249,77.1099 123,75.5C 140.514,77.1967 152.347,86.1967 158.5,102.5 Z"/></g>
<g><path style="opacity:1" fill="#fefefe" d="M 25.5,83.5 C 43.8333,83.5 62.1667,83.5 80.5,83.5C 80.5,101.833 80.5,120.167 80.5,138.5C 80.5,120.167 80.5,101.833 80.5,83.5C 62.1667,83.5 43.8333,83.5 25.5,83.5 Z"/></g>
<g><path style="opacity:1" fill="#8698b4" d="M 87.5,114.5 C 88.4582,116.302 89.1249,118.302 89.5,120.5C 88.8333,129.167 88.1667,137.833 87.5,146.5C 87.5,135.833 87.5,125.167 87.5,114.5 Z"/></g>
<g><path style="opacity:1" fill="#fbfcfd" d="M 158.5,118.5 C 158.5,150.833 158.5,183.167 158.5,215.5C 158.167,215.5 157.833,215.5 157.5,215.5C 146.705,192.577 135.372,169.91 123.5,147.5C 111.898,169.704 100.565,192.037 89.5,214.5C 88.8333,199.833 88.1667,185.167 87.5,170.5C 84.264,156.1 75.264,148.267 60.5,147C 69.4938,146.5 78.4938,146.334 87.5,146.5C 88.1667,137.833 88.8333,129.167 89.5,120.5C 93.6832,133.516 102.35,142.016 115.5,146C 137.367,148.255 151.701,139.089 158.5,118.5 Z"/></g>
<g><path style="opacity:1" fill="#8496b2" d="M 25.5,83.5 C 25.5,101.833 25.5,120.167 25.5,138.5C 43.8333,138.5 62.1667,138.5 80.5,138.5C 62.0075,139.497 43.3408,139.83 24.5,139.5C 24.1698,120.659 24.5031,101.993 25.5,83.5 Z"/></g>
<g><path style="opacity:1" fill="#1b3b6f" d="M 159.5,146.5 C 164.167,146.5 168.833,146.5 173.5,146.5C 175.265,147.461 177.265,147.795 179.5,147.5C 204.473,151.305 220.64,165.305 228,189.5C 229.346,198.441 229.846,207.441 229.5,216.5C 206.167,216.5 182.833,216.5 159.5,216.5C 159.5,193.167 159.5,169.833 159.5,146.5 Z"/></g>
<g><path style="opacity:1" fill="#7c8ba9" d="M 180.5,145.5 C 180.167,146.167 179.833,146.833 179.5,147.5C 177.265,147.795 175.265,147.461 173.5,146.5C 175.903,146.552 178.236,146.219 180.5,145.5 Z"/></g>
<g><path style="opacity:1" fill="#0e5d84" d="M 157.5,215.5 C 134.673,216.498 111.673,216.831 88.5,216.5C 88.8333,215.833 89.1667,215.167 89.5,214.5C 100.565,192.037 111.898,169.704 123.5,147.5C 135.372,169.91 146.705,192.577 157.5,215.5 Z"/></g>
<g><path style="opacity:1" fill="#fafbfc" d="M 122.5,168.5 C 123.376,168.369 124.043,168.702 124.5,169.5C 130.5,181.5 136.5,193.5 142.5,205.5C 129.833,206.833 117.167,206.833 104.5,205.5C 110.783,193.267 116.783,180.934 122.5,168.5 Z"/></g>
<g><path style="opacity:1" fill="#90a0b9" d="M 87.5,170.5 C 88.1667,185.167 88.8333,199.833 89.5,214.5C 89.1667,215.167 88.8333,215.833 88.5,216.5C 88.1667,216.5 87.8333,216.5 87.5,216.5C 87.5,201.167 87.5,185.833 87.5,170.5 Z"/></g>
<g><path style="opacity:1" fill="#4c7e9e" d="M 157.5,215.5 C 157.833,215.5 158.167,215.5 158.5,215.5C 158.5,216.167 158.5,216.833 158.5,217.5C 118.663,217.832 78.9965,217.499 39.5,216.5C 55.5,216.5 71.5,216.5 87.5,216.5C 87.8333,216.5 88.1667,216.5 88.5,216.5C 111.673,216.831 134.673,216.498 157.5,215.5 Z"/></g>
<g><path style="opacity:1" fill="#58698f" d="M 173.5,5.5 C 168.833,5.5 164.167,5.5 159.5,5.5C 159.5,52.5 159.5,99.5 159.5,146.5C 159.5,169.833 159.5,193.167 159.5,216.5C 182.833,216.5 206.167,216.5 229.5,216.5C 206.006,217.498 182.339,217.831 158.5,217.5C 158.5,216.833 158.5,216.167 158.5,215.5C 158.5,183.167 158.5,150.833 158.5,118.5C 158.5,113.167 158.5,107.833 158.5,102.5C 158.5,69.8333 158.5,37.1667 158.5,4.5C 163.695,4.17949 168.695,4.51283 173.5,5.5 Z"/></g>
</svg>
